<svg class="icon" viewBox="0 0 1024 1024" xmlns="http://www.w3.org/2000/svg" width="200" height="200"><path d="M512 0c282.772 0 512 229.228 512 512s-229.228 512-512 512S0 794.772 0 512 229.228 0 512 0zm0 256a40.421 40.421 0 0 0-40.421 40.421V471.58H296.42a40.421 40.421 0 1 0 0 80.842H471.58V727.58a40.421 40.421 0 0 0 80.842 0V552.42H727.58a40.421 40.421 0 0 0 0-80.842l-175.158-.007v-175.15A40.421 40.421 0 0 0 512 256z" fill="#f4ea2a"/><path d="M870.575 279.512a411.729 411.729 0 0 1 29.925 51.914c5.444 11.277.607 24.778-10.82 30.154-11.418 5.376-25.087.593-30.53-10.678a364.49 364.49 0 0 0-26.645-46.222 22.447 22.447 0 0 1 6.292-31.38c10.51-6.952 24.738-4.17 31.778 6.212zM685.38 123.055a417.617 417.617 0 0 1 72.745 39.626 424.435 424.435 0 0 1 63.75 53.275 23.74 23.74 0 0 1 0 33.172 22.79 22.79 0 0 1-32.606 0 378.139 378.139 0 0 0-56.805-47.46 371.739 371.739 0 0 0-64.754-35.275c-11.77-4.958-17.348-18.681-12.47-30.652 4.877-11.965 18.371-17.65 30.134-12.686z" fill="#f4ea2a"/></svg>