<svg class="icon" viewBox="0 0 1024 1024" xmlns="http://www.w3.org/2000/svg" width="200" height="200"><path d="M781.8 283.8H408.3c-11.5 0-20.8 9.3-20.8 20.8s9.3 20.8 20.8 20.8h373.5c11.5 0 20.8-9.3 20.8-20.8-.1-11.6-9.4-20.8-20.8-20.8z" fill="#f4ea2a"/><path d="M802.5 97h-581C153 97 97 153 97 221.5v581C97 871 153 927 221.5 927h581C871 927 927 871 927 802.5v-581C927 153 871 97 802.5 97zm83 705.5c0 45.8-37.2 83-83 83h-581c-45.8 0-83-37.2-83-83v-581c0-45.8 37.2-83 83-83h581c45.8 0 83 37.2 83 83v581z" fill="#f4ea2a"/><path d="M221.5 304.5a41.5 41.5 0 1 0 83 0 41.5 41.5 0 1 0-83 0zM781.8 491.3H408.3c-11.5 0-20.8 9.3-20.8 20.8s9.3 20.8 20.8 20.8h373.5c11.5 0 20.8-9.3 20.8-20.8-.1-11.6-9.4-20.8-20.8-20.8zM221.5 512a41.5 41.5 0 1 0 83 0 41.5 41.5 0 1 0-83 0zM781.8 698.8H408.3c-11.5 0-20.8 9.3-20.8 20.8s9.3 20.8 20.8 20.8h373.5c11.5 0 20.8-9.3 20.8-20.8-.1-11.6-9.4-20.8-20.8-20.8zM221.5 719.5a41.5 41.5 0 1 0 83 0 41.5 41.5 0 1 0-83 0z" fill="#f4ea2a"/></svg>